<mxfile host="app.diagrams.net" agent="Mozilla/5.0 (Windows NT 10.0; Win64; x64; rv:134.0) Gecko/20100101 Firefox/134.0" version="26.0.6">
  <diagram name="第 1 页" id="FDnSqhvuiO77HFrQjU2g">
    <mxGraphModel dx="6523" dy="2885" grid="0" gridSize="10" guides="1" tooltips="1" connect="1" arrows="1" fold="1" page="1" pageScale="1" pageWidth="1920" pageHeight="1200" background="#E6E6E6" math="0" shadow="1">
      <root>
        <mxCell id="0" />
        <mxCell id="1" parent="0" />
        <mxCell id="Ahrg0DG0GAoIvXKbUnpo-85" value="resources" style="rounded=0;whiteSpace=wrap;html=1;strokeColor=#EEEEEE;fontColor=#FFFFFF;fillColor=#568691;" parent="1" vertex="1">
          <mxGeometry x="1650" y="850" width="120" height="60" as="geometry" />
        </mxCell>
        <mxCell id="Ahrg0DG0GAoIvXKbUnpo-79" value="" style="rounded=0;whiteSpace=wrap;html=1;strokeColor=#EEEEEE;fontColor=#FFFFFF;fillColor=#56517E;" parent="1" vertex="1">
          <mxGeometry x="1520" y="288" width="120" height="60" as="geometry" />
        </mxCell>
        <mxCell id="Ahrg0DG0GAoIvXKbUnpo-77" value="" style="rounded=0;whiteSpace=wrap;html=1;strokeColor=#EEEEEE;fontColor=#FFFFFF;fillColor=#766FAD;" parent="1" vertex="1">
          <mxGeometry x="1514" y="280" width="120" height="60" as="geometry" />
        </mxCell>
        <mxCell id="Ahrg0DG0GAoIvXKbUnpo-24" style="edgeStyle=orthogonalEdgeStyle;rounded=0;orthogonalLoop=1;jettySize=auto;html=1;strokeColor=#3E3C3C;" parent="1" source="Ahrg0DG0GAoIvXKbUnpo-16" target="Ahrg0DG0GAoIvXKbUnpo-27" edge="1">
          <mxGeometry relative="1" as="geometry">
            <mxPoint x="250" y="512" as="targetPoint" />
          </mxGeometry>
        </mxCell>
        <mxCell id="Ahrg0DG0GAoIvXKbUnpo-16" value="双师4.0" style="shape=cylinder3;whiteSpace=wrap;html=1;boundedLbl=1;backgroundOutline=1;size=15;fillColor=#56517E;strokeColor=#EEEEEE;fontSize=16;labelBackgroundColor=none;fontColor=#FFFFFF;" parent="1" vertex="1">
          <mxGeometry x="-70" y="467" width="100" height="90" as="geometry" />
        </mxCell>
        <mxCell id="Ahrg0DG0GAoIvXKbUnpo-44" style="edgeStyle=orthogonalEdgeStyle;rounded=0;orthogonalLoop=1;jettySize=auto;html=1;strokeColor=#182E3E;" parent="1" source="Ahrg0DG0GAoIvXKbUnpo-19" target="Ahrg0DG0GAoIvXKbUnpo-40" edge="1">
          <mxGeometry relative="1" as="geometry" />
        </mxCell>
        <mxCell id="Ahrg0DG0GAoIvXKbUnpo-19" value="course_segment" style="shape=cylinder3;whiteSpace=wrap;html=1;boundedLbl=1;backgroundOutline=1;size=15;fillColor=#56517E;strokeColor=#EEEEEE;fontSize=16;labelBackgroundColor=none;fontColor=#FFFFFF;" parent="1" vertex="1">
          <mxGeometry x="360" y="467" width="140" height="90" as="geometry" />
        </mxCell>
        <mxCell id="Ahrg0DG0GAoIvXKbUnpo-37" style="edgeStyle=orthogonalEdgeStyle;rounded=0;orthogonalLoop=1;jettySize=auto;html=1;strokeColor=#182E3E;" parent="1" source="Ahrg0DG0GAoIvXKbUnpo-27" target="Ahrg0DG0GAoIvXKbUnpo-19" edge="1">
          <mxGeometry relative="1" as="geometry">
            <mxPoint x="440" y="512" as="targetPoint" />
          </mxGeometry>
        </mxCell>
        <mxCell id="Ahrg0DG0GAoIvXKbUnpo-27" value="abcs&lt;br style=&quot;font-size: 16px;&quot;&gt;课程信息" style="rounded=0;whiteSpace=wrap;html=1;strokeColor=#EEEEEE;fontColor=#FFFFFF;fillColor=#766FAD;fontSize=16;" parent="1" vertex="1">
          <mxGeometry x="209.99999999999977" y="481.9999999999999" width="120" height="60" as="geometry" />
        </mxCell>
        <mxCell id="Ahrg0DG0GAoIvXKbUnpo-36" style="edgeStyle=orthogonalEdgeStyle;rounded=0;orthogonalLoop=1;jettySize=auto;html=1;strokeColor=#182E3E;" parent="1" source="Ahrg0DG0GAoIvXKbUnpo-27" target="Ahrg0DG0GAoIvXKbUnpo-60" edge="1">
          <mxGeometry relative="1" as="geometry">
            <mxPoint x="270" y="762" as="targetPoint" />
          </mxGeometry>
        </mxCell>
        <mxCell id="Ahrg0DG0GAoIvXKbUnpo-49" style="edgeStyle=orthogonalEdgeStyle;rounded=0;orthogonalLoop=1;jettySize=auto;html=1;strokeColor=#182E3E;entryX=0;entryY=0.5;entryDx=0;entryDy=0;entryPerimeter=0;" parent="1" source="Ahrg0DG0GAoIvXKbUnpo-40" target="Ahrg0DG0GAoIvXKbUnpo-46" edge="1">
          <mxGeometry relative="1" as="geometry">
            <mxPoint x="957.1399999999999" y="552" as="targetPoint" />
          </mxGeometry>
        </mxCell>
        <mxCell id="Ahrg0DG0GAoIvXKbUnpo-40" value="abc_segments&#xa;前测 教学设计&#xa;后测 拓展资料" style="rounded=0;strokeColor=#EEEEEE;fontColor=#FFFFFF;fillColor=#766FAD;spacing=2;whiteSpace=wrap;fontSize=16;" parent="1" vertex="1">
          <mxGeometry x="530" y="470" width="180" height="84" as="geometry" />
        </mxCell>
        <mxCell id="MCGgt6we26AS3DJ77LEc-5" style="edgeStyle=orthogonalEdgeStyle;rounded=0;orthogonalLoop=1;jettySize=auto;html=1;" parent="1" source="Ahrg0DG0GAoIvXKbUnpo-45" target="Ahrg0DG0GAoIvXKbUnpo-56" edge="1">
          <mxGeometry relative="1" as="geometry" />
        </mxCell>
        <mxCell id="Ahrg0DG0GAoIvXKbUnpo-45" value="course_rel_resource&lt;br style=&quot;font-size: 16px;&quot;&gt;文件资源" style="shape=cylinder3;whiteSpace=wrap;html=1;boundedLbl=1;backgroundOutline=1;size=15;fillColor=#56517E;strokeColor=#EEEEEE;fontSize=16;labelBackgroundColor=none;fontColor=#FFFFFF;" parent="1" vertex="1">
          <mxGeometry x="889.9999999999999" y="362" width="220" height="90" as="geometry" />
        </mxCell>
        <mxCell id="MCGgt6we26AS3DJ77LEc-3" style="edgeStyle=orthogonalEdgeStyle;rounded=0;orthogonalLoop=1;jettySize=auto;html=1;" parent="1" source="Ahrg0DG0GAoIvXKbUnpo-46" target="Ahrg0DG0GAoIvXKbUnpo-73" edge="1">
          <mxGeometry relative="1" as="geometry" />
        </mxCell>
        <mxCell id="Ahrg0DG0GAoIvXKbUnpo-46" value="course_rel_rich_resource&lt;br style=&quot;font-size: 16px;&quot;&gt;富文本资源" style="shape=cylinder3;whiteSpace=wrap;html=1;boundedLbl=1;backgroundOutline=1;size=15;fillColor=#56517E;strokeColor=#EEEEEE;fontSize=16;labelBackgroundColor=none;fontColor=#FFFFFF;" parent="1" vertex="1">
          <mxGeometry x="889.9999999999999" y="467" width="220" height="90" as="geometry" />
        </mxCell>
        <mxCell id="MCGgt6we26AS3DJ77LEc-4" style="edgeStyle=orthogonalEdgeStyle;rounded=0;orthogonalLoop=1;jettySize=auto;html=1;" parent="1" source="Ahrg0DG0GAoIvXKbUnpo-47" target="Ahrg0DG0GAoIvXKbUnpo-82" edge="1">
          <mxGeometry relative="1" as="geometry" />
        </mxCell>
        <mxCell id="Ahrg0DG0GAoIvXKbUnpo-47" value="design_segment_module_target&lt;br style=&quot;font-size: 16px;&quot;&gt;教学设计模块" style="shape=cylinder3;whiteSpace=wrap;html=1;boundedLbl=1;backgroundOutline=1;size=15;fillColor=#56517E;strokeColor=#EEEEEE;fontSize=16;labelBackgroundColor=none;fontColor=#FFFFFF;" parent="1" vertex="1">
          <mxGeometry x="889.9999999999999" y="572" width="220" height="90" as="geometry" />
        </mxCell>
        <mxCell id="Ahrg0DG0GAoIvXKbUnpo-51" style="edgeStyle=orthogonalEdgeStyle;rounded=0;orthogonalLoop=1;jettySize=auto;html=1;entryX=-0.004;entryY=0.554;entryDx=0;entryDy=0;entryPerimeter=0;strokeColor=#182E3E;" parent="1" source="Ahrg0DG0GAoIvXKbUnpo-40" target="Ahrg0DG0GAoIvXKbUnpo-47" edge="1">
          <mxGeometry relative="1" as="geometry">
            <Array as="points">
              <mxPoint x="850" y="512" />
              <mxPoint x="850" y="622" />
            </Array>
          </mxGeometry>
        </mxCell>
        <mxCell id="Ahrg0DG0GAoIvXKbUnpo-55" style="edgeStyle=orthogonalEdgeStyle;rounded=0;orthogonalLoop=1;jettySize=auto;html=1;entryX=0;entryY=0.5;entryDx=0;entryDy=0;entryPerimeter=0;strokeColor=#182E3E;" parent="1" source="MCGgt6we26AS3DJ77LEc-21" target="Ahrg0DG0GAoIvXKbUnpo-45" edge="1">
          <mxGeometry relative="1" as="geometry">
            <Array as="points">
              <mxPoint x="850" y="512" />
              <mxPoint x="850" y="407" />
            </Array>
          </mxGeometry>
        </mxCell>
        <mxCell id="Ahrg0DG0GAoIvXKbUnpo-64" style="edgeStyle=orthogonalEdgeStyle;rounded=0;orthogonalLoop=1;jettySize=auto;html=1;strokeColor=#182E3E;" parent="1" source="Ahrg0DG0GAoIvXKbUnpo-56" target="Ahrg0DG0GAoIvXKbUnpo-62" edge="1">
          <mxGeometry relative="1" as="geometry" />
        </mxCell>
        <mxCell id="Ahrg0DG0GAoIvXKbUnpo-65" style="edgeStyle=orthogonalEdgeStyle;rounded=0;orthogonalLoop=1;jettySize=auto;html=1;strokeColor=#182E3E;" parent="1" source="Ahrg0DG0GAoIvXKbUnpo-56" target="Ahrg0DG0GAoIvXKbUnpo-63" edge="1">
          <mxGeometry relative="1" as="geometry" />
        </mxCell>
        <mxCell id="MCGgt6we26AS3DJ77LEc-6" style="edgeStyle=orthogonalEdgeStyle;rounded=0;orthogonalLoop=1;jettySize=auto;html=1;" parent="1" source="Ahrg0DG0GAoIvXKbUnpo-56" target="Ahrg0DG0GAoIvXKbUnpo-66" edge="1">
          <mxGeometry relative="1" as="geometry">
            <Array as="points">
              <mxPoint x="1213" y="430" />
              <mxPoint x="1580" y="430" />
            </Array>
          </mxGeometry>
        </mxCell>
        <mxCell id="Ahrg0DG0GAoIvXKbUnpo-56" value="resource_file&lt;br style=&quot;font-size: 16px;&quot;&gt;文件资源" style="shape=cylinder3;whiteSpace=wrap;html=1;boundedLbl=1;backgroundOutline=1;size=15;fillColor=#56517E;strokeColor=#EEEEEE;fontSize=16;labelBackgroundColor=none;fontColor=#FFFFFF;" parent="1" vertex="1">
          <mxGeometry x="1152.86" y="272" width="120" height="90" as="geometry" />
        </mxCell>
        <mxCell id="Ahrg0DG0GAoIvXKbUnpo-101" style="edgeStyle=orthogonalEdgeStyle;rounded=0;orthogonalLoop=1;jettySize=auto;html=1;strokeColor=#182E3E;" parent="1" source="Ahrg0DG0GAoIvXKbUnpo-60" target="Ahrg0DG0GAoIvXKbUnpo-86" edge="1">
          <mxGeometry relative="1" as="geometry" />
        </mxCell>
        <mxCell id="Ahrg0DG0GAoIvXKbUnpo-60" value="lesson_resources" style="rounded=0;whiteSpace=wrap;html=1;strokeColor=#EEEEEE;fontColor=#FFFFFF;fillColor=#568691;fontSize=16;" parent="1" vertex="1">
          <mxGeometry x="200" y="860" width="140" height="60" as="geometry" />
        </mxCell>
        <mxCell id="Ahrg0DG0GAoIvXKbUnpo-70" value="" style="edgeStyle=orthogonalEdgeStyle;rounded=0;orthogonalLoop=1;jettySize=auto;html=1;strokeColor=#182E3E;" parent="1" source="Ahrg0DG0GAoIvXKbUnpo-62" target="Ahrg0DG0GAoIvXKbUnpo-66" edge="1">
          <mxGeometry relative="1" as="geometry" />
        </mxCell>
        <mxCell id="Ahrg0DG0GAoIvXKbUnpo-62" value="material&lt;br style=&quot;font-size: 16px;&quot;&gt;原始文件" style="shape=cylinder3;whiteSpace=wrap;html=1;boundedLbl=1;backgroundOutline=1;size=15;fillColor=#56517E;strokeColor=#EEEEEE;fontSize=16;labelBackgroundColor=none;fontColor=#FFFFFF;" parent="1" vertex="1">
          <mxGeometry x="1330" y="222" width="120" height="90" as="geometry" />
        </mxCell>
        <mxCell id="Ahrg0DG0GAoIvXKbUnpo-71" value="" style="edgeStyle=orthogonalEdgeStyle;rounded=0;orthogonalLoop=1;jettySize=auto;html=1;strokeColor=#182E3E;" parent="1" source="Ahrg0DG0GAoIvXKbUnpo-63" target="Ahrg0DG0GAoIvXKbUnpo-66" edge="1">
          <mxGeometry relative="1" as="geometry" />
        </mxCell>
        <mxCell id="Ahrg0DG0GAoIvXKbUnpo-63" value="resource&lt;br style=&quot;font-size: 16px;&quot;&gt;资源属性" style="shape=cylinder3;whiteSpace=wrap;html=1;boundedLbl=1;backgroundOutline=1;size=15;fillColor=#56517E;strokeColor=#EEEEEE;fontSize=16;labelBackgroundColor=none;fontColor=#FFFFFF;" parent="1" vertex="1">
          <mxGeometry x="1330" y="322" width="120" height="90" as="geometry" />
        </mxCell>
        <mxCell id="Ahrg0DG0GAoIvXKbUnpo-98" style="edgeStyle=orthogonalEdgeStyle;rounded=0;orthogonalLoop=1;jettySize=auto;html=1;strokeColor=#182E3E;" parent="1" source="Ahrg0DG0GAoIvXKbUnpo-66" target="Ahrg0DG0GAoIvXKbUnpo-88" edge="1">
          <mxGeometry relative="1" as="geometry">
            <Array as="points">
              <mxPoint x="1720" y="317" />
            </Array>
          </mxGeometry>
        </mxCell>
        <mxCell id="Ahrg0DG0GAoIvXKbUnpo-66" value="file_resource" style="rounded=0;whiteSpace=wrap;html=1;strokeColor=#EEEEEE;fontColor=#FFFFFF;fillColor=#766FAD;fontSize=16;" parent="1" vertex="1">
          <mxGeometry x="1520" y="287" width="120" height="60" as="geometry" />
        </mxCell>
        <mxCell id="Ahrg0DG0GAoIvXKbUnpo-76" style="edgeStyle=orthogonalEdgeStyle;rounded=0;orthogonalLoop=1;jettySize=auto;html=1;entryX=0;entryY=0.5;entryDx=0;entryDy=0;strokeColor=#182E3E;" parent="1" source="Ahrg0DG0GAoIvXKbUnpo-73" target="Ahrg0DG0GAoIvXKbUnpo-75" edge="1">
          <mxGeometry relative="1" as="geometry" />
        </mxCell>
        <mxCell id="Ahrg0DG0GAoIvXKbUnpo-73" value="design_segment_module&lt;br style=&quot;font-size: 16px;&quot;&gt;教学设计资源" style="shape=cylinder3;whiteSpace=wrap;html=1;boundedLbl=1;backgroundOutline=1;size=15;fillColor=#56517E;strokeColor=#EEEEEE;fontSize=16;labelBackgroundColor=none;fontColor=#FFFFFF;" parent="1" vertex="1">
          <mxGeometry x="1152.86" y="467" width="220" height="90" as="geometry" />
        </mxCell>
        <mxCell id="MCGgt6we26AS3DJ77LEc-7" style="edgeStyle=orthogonalEdgeStyle;rounded=0;orthogonalLoop=1;jettySize=auto;html=1;" parent="1" source="Ahrg0DG0GAoIvXKbUnpo-75" target="Ahrg0DG0GAoIvXKbUnpo-88" edge="1">
          <mxGeometry relative="1" as="geometry">
            <Array as="points">
              <mxPoint x="1574" y="680" />
              <mxPoint x="1720" y="680" />
            </Array>
          </mxGeometry>
        </mxCell>
        <mxCell id="Ahrg0DG0GAoIvXKbUnpo-75" value="text_resource&lt;br style=&quot;font-size: 16px;&quot;&gt;教学设计(环节标题, 环节流程)" style="rounded=0;whiteSpace=wrap;html=1;strokeColor=#EEEEEE;fontColor=#FFFFFF;fillColor=#766FAD;fontSize=16;" parent="1" vertex="1">
          <mxGeometry x="1474" y="472" width="200" height="80" as="geometry" />
        </mxCell>
        <mxCell id="Ahrg0DG0GAoIvXKbUnpo-84" style="edgeStyle=orthogonalEdgeStyle;rounded=0;orthogonalLoop=1;jettySize=auto;html=1;strokeColor=#182E3E;" parent="1" source="Ahrg0DG0GAoIvXKbUnpo-82" target="Ahrg0DG0GAoIvXKbUnpo-83" edge="1">
          <mxGeometry relative="1" as="geometry" />
        </mxCell>
        <mxCell id="Ahrg0DG0GAoIvXKbUnpo-82" value="target_chapter&lt;br style=&quot;font-size: 16px;&quot;&gt;学习目标资源" style="shape=cylinder3;whiteSpace=wrap;html=1;boundedLbl=1;backgroundOutline=1;size=15;fillColor=#56517E;strokeColor=#EEEEEE;fontSize=16;labelBackgroundColor=none;fontColor=#FFFFFF;" parent="1" vertex="1">
          <mxGeometry x="1152.86" y="572" width="220" height="90" as="geometry" />
        </mxCell>
        <mxCell id="Ahrg0DG0GAoIvXKbUnpo-83" value="target_resource&lt;br style=&quot;font-size: 16px;&quot;&gt;学习目标" style="rounded=0;whiteSpace=wrap;html=1;strokeColor=#EEEEEE;fontColor=#FFFFFF;fillColor=#766FAD;fontSize=16;" parent="1" vertex="1">
          <mxGeometry x="1504" y="582" width="140" height="70" as="geometry" />
        </mxCell>
        <mxCell id="Ahrg0DG0GAoIvXKbUnpo-86" value="lesson_resource&lt;br&gt;课程" style="shape=cylinder3;whiteSpace=wrap;html=1;boundedLbl=1;backgroundOutline=1;size=15;strokeColor=#EEEEEE;fontColor=#FFFFFF;fillColor=#3F636B;fontSize=16;" parent="1" vertex="1">
          <mxGeometry x="190" y="950" width="160" height="100" as="geometry" />
        </mxCell>
        <mxCell id="Ahrg0DG0GAoIvXKbUnpo-87" value="resource&lt;br&gt;课程资源" style="shape=cylinder3;whiteSpace=wrap;html=1;boundedLbl=1;backgroundOutline=1;size=15;strokeColor=#EEEEEE;fontColor=#FFFFFF;fillColor=#3F636B;fontSize=16;" parent="1" vertex="1">
          <mxGeometry x="1640" y="950" width="160" height="100" as="geometry" />
        </mxCell>
        <mxCell id="Ahrg0DG0GAoIvXKbUnpo-99" style="edgeStyle=orthogonalEdgeStyle;rounded=0;orthogonalLoop=1;jettySize=auto;html=1;strokeColor=#182E3E;" parent="1" source="MCGgt6we26AS3DJ77LEc-19" target="Ahrg0DG0GAoIvXKbUnpo-60" edge="1">
          <mxGeometry relative="1" as="geometry" />
        </mxCell>
        <mxCell id="Ahrg0DG0GAoIvXKbUnpo-100" style="edgeStyle=orthogonalEdgeStyle;rounded=0;orthogonalLoop=1;jettySize=auto;html=1;strokeColor=#182E3E;" parent="1" source="Ahrg0DG0GAoIvXKbUnpo-88" target="Ahrg0DG0GAoIvXKbUnpo-87" edge="1">
          <mxGeometry relative="1" as="geometry" />
        </mxCell>
        <mxCell id="Ahrg0DG0GAoIvXKbUnpo-88" value="resources" style="rounded=0;whiteSpace=wrap;html=1;strokeColor=#EEEEEE;fontColor=#FFFFFF;fillColor=#568691;fontSize=16;" parent="1" vertex="1">
          <mxGeometry x="1660" y="860" width="120" height="60" as="geometry" />
        </mxCell>
        <mxCell id="Ahrg0DG0GAoIvXKbUnpo-105" value="" style="endArrow=none;html=1;rounded=0;strokeColor=#182E3E;strokeWidth=4;labelBackgroundColor=default;shadow=0;" parent="1" edge="1">
          <mxGeometry width="50" height="50" relative="1" as="geometry">
            <mxPoint x="-120" y="720" as="sourcePoint" />
            <mxPoint x="2040" y="720" as="targetPoint" />
          </mxGeometry>
        </mxCell>
        <mxCell id="Ahrg0DG0GAoIvXKbUnpo-107" value="各站点历史数据" style="text;html=1;align=center;verticalAlign=middle;resizable=0;points=[];autosize=1;strokeColor=none;fillColor=none;fontColor=#000000;fontSize=28;" parent="1" vertex="1">
          <mxGeometry x="-38" y="670" width="214" height="46" as="geometry" />
        </mxCell>
        <mxCell id="Ahrg0DG0GAoIvXKbUnpo-108" value="资源平台统一数据" style="text;html=1;align=center;verticalAlign=middle;resizable=0;points=[];autosize=1;strokeColor=none;fillColor=none;fontColor=#000000;fontSize=28;" parent="1" vertex="1">
          <mxGeometry x="-52" y="722" width="242" height="46" as="geometry" />
        </mxCell>
        <mxCell id="oSkX1Zhzz-4-YaLxy8YC-11" style="edgeStyle=orthogonalEdgeStyle;rounded=0;orthogonalLoop=1;jettySize=auto;html=1;" parent="1" source="oSkX1Zhzz-4-YaLxy8YC-1" target="oSkX1Zhzz-4-YaLxy8YC-2" edge="1">
          <mxGeometry relative="1" as="geometry" />
        </mxCell>
        <mxCell id="oSkX1Zhzz-4-YaLxy8YC-13" value="数据属性特征" style="edgeLabel;html=1;align=center;verticalAlign=middle;resizable=0;points=[];fontSize=16;labelBackgroundColor=none;" parent="oSkX1Zhzz-4-YaLxy8YC-11" vertex="1" connectable="0">
          <mxGeometry x="-0.0222" y="1" relative="1" as="geometry">
            <mxPoint as="offset" />
          </mxGeometry>
        </mxCell>
        <mxCell id="h7Kr-m2LsEwe0tITGlFB-1" value="交叉特征" style="edgeLabel;html=1;align=center;verticalAlign=middle;resizable=0;points=[];fontSize=16;labelBackgroundColor=none;" parent="oSkX1Zhzz-4-YaLxy8YC-11" vertex="1" connectable="0">
          <mxGeometry x="-0.0222" y="1" relative="1" as="geometry">
            <mxPoint x="1" y="-138" as="offset" />
          </mxGeometry>
        </mxCell>
        <mxCell id="oSkX1Zhzz-4-YaLxy8YC-1" value="资源平台" style="rounded=0;whiteSpace=wrap;html=1;strokeColor=#EEEEEE;fontColor=#FFFFFF;fillColor=#917A5B;fontSize=16;" parent="1" vertex="1">
          <mxGeometry x="2720" y="502" width="120" height="60" as="geometry" />
        </mxCell>
        <mxCell id="oSkX1Zhzz-4-YaLxy8YC-18" value="" style="edgeStyle=orthogonalEdgeStyle;rounded=0;orthogonalLoop=1;jettySize=auto;html=1;" parent="1" source="oSkX1Zhzz-4-YaLxy8YC-2" target="oSkX1Zhzz-4-YaLxy8YC-17" edge="1">
          <mxGeometry relative="1" as="geometry" />
        </mxCell>
        <mxCell id="oSkX1Zhzz-4-YaLxy8YC-2" value="特征工程" style="rounded=0;whiteSpace=wrap;html=1;strokeColor=#EEEEEE;fontColor=#FFFFFF;fillColor=#917A5B;fontSize=16;" parent="1" vertex="1">
          <mxGeometry x="2720" y="352" width="120" height="60" as="geometry" />
        </mxCell>
        <mxCell id="oSkX1Zhzz-4-YaLxy8YC-7" style="edgeStyle=orthogonalEdgeStyle;rounded=0;orthogonalLoop=1;jettySize=auto;html=1;" parent="1" source="oSkX1Zhzz-4-YaLxy8YC-4" target="oSkX1Zhzz-4-YaLxy8YC-1" edge="1">
          <mxGeometry relative="1" as="geometry">
            <Array as="points">
              <mxPoint x="2580" y="620" />
              <mxPoint x="2780" y="620" />
            </Array>
          </mxGeometry>
        </mxCell>
        <mxCell id="oSkX1Zhzz-4-YaLxy8YC-4" value="双师4.0" style="shape=cylinder3;whiteSpace=wrap;html=1;boundedLbl=1;backgroundOutline=1;size=15;fillColor=#56517E;strokeColor=#EEEEEE;fontSize=16;labelBackgroundColor=none;fontColor=#FFFFFF;" parent="1" vertex="1">
          <mxGeometry x="2510" y="662.0000000000002" width="140" height="90" as="geometry" />
        </mxCell>
        <mxCell id="oSkX1Zhzz-4-YaLxy8YC-8" style="edgeStyle=orthogonalEdgeStyle;rounded=0;orthogonalLoop=1;jettySize=auto;html=1;" parent="1" source="oSkX1Zhzz-4-YaLxy8YC-5" target="oSkX1Zhzz-4-YaLxy8YC-1" edge="1">
          <mxGeometry relative="1" as="geometry" />
        </mxCell>
        <mxCell id="oSkX1Zhzz-4-YaLxy8YC-5" value="巴蜀" style="shape=cylinder3;whiteSpace=wrap;html=1;boundedLbl=1;backgroundOutline=1;size=15;fillColor=#56517E;strokeColor=#EEEEEE;fontSize=16;labelBackgroundColor=none;fontColor=#FFFFFF;" parent="1" vertex="1">
          <mxGeometry x="2710" y="662.0000000000002" width="140" height="90" as="geometry" />
        </mxCell>
        <mxCell id="oSkX1Zhzz-4-YaLxy8YC-9" style="edgeStyle=orthogonalEdgeStyle;rounded=0;orthogonalLoop=1;jettySize=auto;html=1;" parent="1" source="oSkX1Zhzz-4-YaLxy8YC-6" target="oSkX1Zhzz-4-YaLxy8YC-1" edge="1">
          <mxGeometry relative="1" as="geometry">
            <Array as="points">
              <mxPoint x="2980" y="620" />
              <mxPoint x="2780" y="620" />
            </Array>
          </mxGeometry>
        </mxCell>
        <mxCell id="oSkX1Zhzz-4-YaLxy8YC-10" value="数据清洗" style="edgeLabel;html=1;align=center;verticalAlign=middle;resizable=0;points=[];fontSize=16;labelBackgroundColor=none;" parent="oSkX1Zhzz-4-YaLxy8YC-9" vertex="1" connectable="0">
          <mxGeometry x="0.5131" y="-2" relative="1" as="geometry">
            <mxPoint x="-15" y="-28" as="offset" />
          </mxGeometry>
        </mxCell>
        <mxCell id="oSkX1Zhzz-4-YaLxy8YC-6" value="..." style="shape=cylinder3;whiteSpace=wrap;html=1;boundedLbl=1;backgroundOutline=1;size=15;fillColor=#56517E;strokeColor=#EEEEEE;fontSize=16;labelBackgroundColor=none;fontColor=#FFFFFF;" parent="1" vertex="1">
          <mxGeometry x="2910" y="662.0000000000002" width="140" height="90" as="geometry" />
        </mxCell>
        <mxCell id="oSkX1Zhzz-4-YaLxy8YC-14" style="edgeStyle=orthogonalEdgeStyle;rounded=0;orthogonalLoop=1;jettySize=auto;html=1;labelBackgroundColor=none;" parent="1" source="oSkX1Zhzz-4-YaLxy8YC-12" target="oSkX1Zhzz-4-YaLxy8YC-2" edge="1">
          <mxGeometry relative="1" as="geometry">
            <Array as="points">
              <mxPoint x="3030" y="382" />
            </Array>
          </mxGeometry>
        </mxCell>
        <mxCell id="oSkX1Zhzz-4-YaLxy8YC-16" value="用户行为特征" style="edgeLabel;html=1;align=center;verticalAlign=middle;resizable=0;points=[];labelBackgroundColor=none;fontSize=16;" parent="oSkX1Zhzz-4-YaLxy8YC-14" vertex="1" connectable="0">
          <mxGeometry x="0.3488" y="1" relative="1" as="geometry">
            <mxPoint y="-21" as="offset" />
          </mxGeometry>
        </mxCell>
        <mxCell id="oSkX1Zhzz-4-YaLxy8YC-12" value="站点" style="rounded=0;whiteSpace=wrap;html=1;strokeColor=#EEEEEE;fontColor=#FFFFFF;fillColor=#917A5B;fontSize=16;" parent="1" vertex="1">
          <mxGeometry x="2970" y="502" width="120" height="60" as="geometry" />
        </mxCell>
        <mxCell id="h7Kr-m2LsEwe0tITGlFB-4" value="" style="edgeStyle=orthogonalEdgeStyle;rounded=0;orthogonalLoop=1;jettySize=auto;html=1;" parent="1" source="oSkX1Zhzz-4-YaLxy8YC-17" target="h7Kr-m2LsEwe0tITGlFB-3" edge="1">
          <mxGeometry relative="1" as="geometry" />
        </mxCell>
        <mxCell id="oSkX1Zhzz-4-YaLxy8YC-17" value="DCN等交叉神经网络" style="rounded=0;whiteSpace=wrap;html=1;strokeColor=#EEEEEE;fontColor=#FFFFFF;fillColor=#917A5B;fontSize=16;" parent="1" vertex="1">
          <mxGeometry x="2690" y="212" width="180" height="60" as="geometry" />
        </mxCell>
        <mxCell id="oSkX1Zhzz-4-YaLxy8YC-19" value="课程资源1" style="rounded=0;whiteSpace=wrap;html=1;strokeColor=#EEEEEE;fontColor=#FFFFFF;fillColor=#568691;fontSize=16;" parent="1" vertex="1">
          <mxGeometry x="-1447" y="381" width="120" height="60" as="geometry" />
        </mxCell>
        <mxCell id="oSkX1Zhzz-4-YaLxy8YC-22" style="edgeStyle=orthogonalEdgeStyle;rounded=0;orthogonalLoop=1;jettySize=auto;html=1;" parent="1" source="oSkX1Zhzz-4-YaLxy8YC-20" target="oSkX1Zhzz-4-YaLxy8YC-19" edge="1">
          <mxGeometry relative="1" as="geometry" />
        </mxCell>
        <mxCell id="oSkX1Zhzz-4-YaLxy8YC-23" style="edgeStyle=orthogonalEdgeStyle;rounded=0;orthogonalLoop=1;jettySize=auto;html=1;" parent="1" source="oSkX1Zhzz-4-YaLxy8YC-20" target="oSkX1Zhzz-4-YaLxy8YC-21" edge="1">
          <mxGeometry relative="1" as="geometry" />
        </mxCell>
        <mxCell id="oSkX1Zhzz-4-YaLxy8YC-20" value="资源" style="rounded=0;whiteSpace=wrap;html=1;strokeColor=#EEEEEE;fontColor=#FFFFFF;fillColor=#568691;fontSize=16;" parent="1" vertex="1">
          <mxGeometry x="-1247" y="772" width="120" height="60" as="geometry" />
        </mxCell>
        <mxCell id="oSkX1Zhzz-4-YaLxy8YC-21" value="课程资源2" style="rounded=0;whiteSpace=wrap;html=1;strokeColor=#EEEEEE;fontColor=#FFFFFF;fillColor=#568691;fontSize=16;" parent="1" vertex="1">
          <mxGeometry x="-1027" y="381" width="120" height="60" as="geometry" />
        </mxCell>
        <mxCell id="MCGgt6we26AS3DJ77LEc-10" style="edgeStyle=orthogonalEdgeStyle;rounded=0;orthogonalLoop=1;jettySize=auto;html=1;" parent="1" source="MCGgt6we26AS3DJ77LEc-1" target="Ahrg0DG0GAoIvXKbUnpo-88" edge="1">
          <mxGeometry relative="1" as="geometry" />
        </mxCell>
        <mxCell id="MCGgt6we26AS3DJ77LEc-1" value="巴蜀" style="shape=cylinder3;whiteSpace=wrap;html=1;boundedLbl=1;backgroundOutline=1;size=15;fillColor=#56517E;strokeColor=#EEEEEE;fontSize=16;labelBackgroundColor=none;fontColor=#FFFFFF;" parent="1" vertex="1">
          <mxGeometry x="1800" y="533" width="120" height="129" as="geometry" />
        </mxCell>
        <mxCell id="MCGgt6we26AS3DJ77LEc-9" style="edgeStyle=orthogonalEdgeStyle;rounded=0;orthogonalLoop=1;jettySize=auto;html=1;" parent="1" source="MCGgt6we26AS3DJ77LEc-16" target="Ahrg0DG0GAoIvXKbUnpo-88" edge="1">
          <mxGeometry relative="1" as="geometry" />
        </mxCell>
        <mxCell id="MCGgt6we26AS3DJ77LEc-8" value="..." style="shape=cylinder3;whiteSpace=wrap;html=1;boundedLbl=1;backgroundOutline=1;size=15;fillColor=#56517E;strokeColor=#EEEEEE;fontSize=16;labelBackgroundColor=none;fontColor=#FFFFFF;" parent="1" vertex="1">
          <mxGeometry x="1800" y="352" width="120" height="129" as="geometry" />
        </mxCell>
        <mxCell id="MCGgt6we26AS3DJ77LEc-12" value="数据去重" style="rounded=0;whiteSpace=wrap;html=1;strokeColor=#EEEEEE;fontColor=#FFFFFF;fillColor=#917A5B;fontSize=16;" parent="1" vertex="1">
          <mxGeometry x="60" y="482" width="120" height="60" as="geometry" />
        </mxCell>
        <mxCell id="MCGgt6we26AS3DJ77LEc-14" value="数据校验" style="rounded=0;whiteSpace=wrap;html=1;strokeColor=#EEEEEE;fontColor=#FFFFFF;fillColor=#917A5B;fontSize=16;" parent="1" vertex="1">
          <mxGeometry x="210" y="760" width="120" height="60" as="geometry" />
        </mxCell>
        <mxCell id="MCGgt6we26AS3DJ77LEc-17" value="" style="edgeStyle=orthogonalEdgeStyle;rounded=0;orthogonalLoop=1;jettySize=auto;html=1;" parent="1" source="MCGgt6we26AS3DJ77LEc-8" target="MCGgt6we26AS3DJ77LEc-16" edge="1">
          <mxGeometry relative="1" as="geometry">
            <mxPoint x="1800" y="416" as="sourcePoint" />
            <mxPoint x="1720" y="860" as="targetPoint" />
          </mxGeometry>
        </mxCell>
        <mxCell id="MCGgt6we26AS3DJ77LEc-16" value="数据校验" style="rounded=0;whiteSpace=wrap;html=1;strokeColor=#EEEEEE;fontColor=#FFFFFF;fillColor=#917A5B;fontSize=16;" parent="1" vertex="1">
          <mxGeometry x="1660" y="760" width="120" height="60" as="geometry" />
        </mxCell>
        <mxCell id="MCGgt6we26AS3DJ77LEc-20" value="" style="edgeStyle=orthogonalEdgeStyle;rounded=0;orthogonalLoop=1;jettySize=auto;html=1;strokeColor=#182E3E;" parent="1" source="Ahrg0DG0GAoIvXKbUnpo-88" target="MCGgt6we26AS3DJ77LEc-19" edge="1">
          <mxGeometry relative="1" as="geometry">
            <mxPoint x="1660" y="890" as="sourcePoint" />
            <mxPoint x="340" y="890" as="targetPoint" />
          </mxGeometry>
        </mxCell>
        <mxCell id="MCGgt6we26AS3DJ77LEc-19" value="数据校验" style="rounded=0;whiteSpace=wrap;html=1;strokeColor=#EEEEEE;fontColor=#FFFFFF;fillColor=#917A5B;fontSize=16;" parent="1" vertex="1">
          <mxGeometry x="940" y="860" width="120" height="60" as="geometry" />
        </mxCell>
        <mxCell id="MCGgt6we26AS3DJ77LEc-22" value="" style="edgeStyle=orthogonalEdgeStyle;rounded=0;orthogonalLoop=1;jettySize=auto;html=1;entryX=0;entryY=0.5;entryDx=0;entryDy=0;entryPerimeter=0;strokeColor=#182E3E;" parent="1" source="Ahrg0DG0GAoIvXKbUnpo-40" target="MCGgt6we26AS3DJ77LEc-21" edge="1">
          <mxGeometry relative="1" as="geometry">
            <mxPoint x="710" y="512" as="sourcePoint" />
            <mxPoint x="890" y="407" as="targetPoint" />
            <Array as="points" />
          </mxGeometry>
        </mxCell>
        <mxCell id="MCGgt6we26AS3DJ77LEc-21" value="数据去重" style="rounded=0;whiteSpace=wrap;html=1;strokeColor=#EEEEEE;fontColor=#FFFFFF;fillColor=#917A5B;fontSize=16;" parent="1" vertex="1">
          <mxGeometry x="730" y="484" width="100" height="56" as="geometry" />
        </mxCell>
        <mxCell id="h7Kr-m2LsEwe0tITGlFB-3" value="1.备课资源&lt;br&gt;2. 教师自身教学情况&lt;br&gt;推荐系统" style="rounded=0;whiteSpace=wrap;html=1;strokeColor=#EEEEEE;fontColor=#FFFFFF;fillColor=#917A5B;fontSize=16;" parent="1" vertex="1">
          <mxGeometry x="2560" y="80" width="440" height="80" as="geometry" />
        </mxCell>
      </root>
    </mxGraphModel>
  </diagram>
</mxfile>
